<svg width="32" height="32" viewBox="0 0 300 80" fill="none" xmlns="http://www.w3.org/2000/svg">
  <path d="M54.5 16C39.9 16 28 27.9 28 42.5C28 57.1 39.9 69 54.5 69C69.1 69 81 57.1 81 42.5C81 27.9 69.1 16 54.5 16ZM54.5 64C42.6 64 33 54.4 33 42.5C33 30.6 42.6 21 54.5 21C66.4 21 76 30.6 76 42.5C76 54.4 66.4 64 54.5 64Z" fill="white"/>
  <path d="M37 31L47 41L37 51" stroke="white" stroke-width="5" stroke-linecap="round" stroke-linejoin="round"/>
  <path d="M72 31L62 41L72 51" stroke="white" stroke-width="5" stroke-linecap="round" stroke-linejoin="round"/>
</svg> 