<svg width="147" height="30" viewBox="0 0 147 30" fill="none" xmlns="http://www.w3.org/2000/svg">
<path d="M13.875 5.25V1.78125L9.25 6.40625L13.875 11.0313V7.5625C17.7022 7.5625 20.8125 10.6728 20.8125 14.5C20.8125 15.6678 20.5234 16.7778 20.0031 17.7375L21.6913 19.4256C22.6281 17.9536 23.1255 16.2449 23.125 14.5C23.125 9.38938 18.9856 5.25 13.875 5.25ZM13.875 21.4375C10.0478 21.4375 6.9375 18.3272 6.9375 14.5C6.9375 13.3322 7.22656 12.2222 7.74688 11.2625L6.05875 9.57438C5.1219 11.0464 4.62451 12.7552 4.625 14.5C4.625 19.6106 8.76438 23.75 13.875 23.75V27.2188L18.5 22.5938L13.875 17.9688V21.4375Z" fill="white"/>
<path d="M35.406 23.592L35.382 23.688C34.326 23.208 33.462 22.536 32.79 21.648C32.118 20.76 31.71 19.728 31.542 18.528H34.758C34.902 19.608 35.358 20.424 36.126 21C36.894 21.576 37.854 21.864 39.006 21.864C39.942 21.864 40.758 21.744 41.43 21.504C42.102 21.264 42.63 20.928 42.99 20.496C43.35 20.064 43.518 19.56 43.518 19.008C43.518 18.456 43.374 18 43.086 17.664C42.798 17.328 42.39 17.064 41.838 16.872C41.286 16.68 40.518 16.464 39.51 16.248L37.062 15.72C35.502 15.384 34.278 14.808 33.39 13.992C32.502 13.176 32.07 12.096 32.07 10.752C32.07 9.768 32.382 8.88 32.982 8.088C33.582 7.296 34.398 6.672 35.43 6.216C36.462 5.76 37.614 5.52 38.886 5.52C40.254 5.52 41.454 5.736 42.486 6.168C43.518 6.6 44.334 7.2 44.958 7.968C45.582 8.736 45.99 9.624 46.158 10.632H42.942C42.678 9.744 42.198 9.096 41.502 8.688C40.806 8.28 39.942 8.064 38.91 8.064C38.214 8.064 37.59 8.16 37.014 8.352C36.438 8.544 35.982 8.832 35.646 9.192C35.31 9.552 35.142 9.984 35.142 10.464C35.142 10.968 35.262 11.376 35.502 11.688C35.742 12 36.126 12.264 36.654 12.48C37.182 12.696 37.926 12.912 38.886 13.128L41.31 13.656C42.534 13.92 43.518 14.256 44.286 14.688C45.054 15.12 45.63 15.648 46.014 16.296C46.398 16.944 46.59 17.736 46.59 18.672C46.59 19.8 46.278 20.784 45.654 21.648C45.03 22.512 44.142 23.16 42.99 23.616C41.838 24.072 40.494 24.312 38.982 24.312C37.662 24.312 36.462 24.072 35.406 23.592ZM57.561 11.064L60.489 11.016V23.952H57.513V21.384C57.201 22.224 56.721 22.92 56.049 23.448C55.377 23.976 54.537 24.24 53.505 24.24C52.545 24.24 51.753 24.024 51.105 23.592C50.457 23.16 49.977 22.56 49.665 21.792C49.353 21.024 49.185 20.136 49.185 19.152V19.104V11.04H52.185V18.552V18.6C52.185 19.776 52.425 20.664 52.881 21.24C53.337 21.816 54.009 22.104 54.873 22.104C55.737 22.104 56.409 21.816 56.865 21.24C57.321 20.664 57.561 19.776 57.561 18.576V11.064ZM67.0009 24H64.0009V11.064H67.0009V24ZM67.0729 9.072H63.9289V5.76H67.0729V9.072ZM77.2868 5.76C79.1348 5.76 80.7428 6.096 82.1108 6.792C83.4788 7.488 84.5348 8.52 85.2788 9.888C86.0228 11.256 86.4068 12.912 86.4068 14.88C86.4068 16.848 86.0228 18.504 85.2788 19.872C84.5348 21.24 83.4788 22.272 82.1108 22.968C80.7428 23.664 79.1348 24 77.2868 24H70.8068V5.76H77.2868ZM77.3588 21.336C78.5828 21.336 79.6388 21.096 80.5268 20.592C81.4148 20.088 82.0868 19.344 82.5428 18.384C82.9988 17.424 83.2388 16.248 83.2388 14.88C83.2388 13.512 82.9988 12.336 82.5428 11.376C82.0868 10.416 81.4148 9.672 80.5268 9.168C79.6388 8.664 78.5828 8.424 77.3588 8.424H73.9028V21.336H77.3588ZM92.2665 24H89.2665V11.064H92.2665V24ZM92.3385 9.072H89.1945V5.76H92.3385V9.072ZM104.88 11.064L108 11.112V23.952C108 25.128 107.712 26.088 107.136 26.856C106.56 27.624 105.816 28.176 104.88 28.536C103.944 28.896 102.936 29.064 101.856 29.064C100.8 29.064 99.8404 28.896 98.9524 28.584C98.0644 28.272 97.3444 27.792 96.7684 27.144C96.1924 26.496 95.8564 25.704 95.7364 24.768H98.7604C98.8804 25.464 99.2164 25.992 99.7684 26.376C100.32 26.76 100.992 26.952 101.784 26.952C102.384 26.952 102.912 26.832 103.392 26.616C103.872 26.4 104.256 26.064 104.52 25.632C104.784 25.2 104.928 24.672 104.928 24.024V21C104.688 21.576 104.352 22.08 103.896 22.536C103.44 22.992 102.912 23.328 102.312 23.568C101.712 23.808 101.088 23.928 100.44 23.928C99.3844 23.928 98.4484 23.664 97.6324 23.112C96.8164 22.56 96.1684 21.792 95.7124 20.784C95.2564 19.776 95.0164 18.624 95.0164 17.328C95.0164 16.032 95.2564 14.88 95.7124 13.896C96.1684 12.912 96.8164 12.144 97.6324 11.592C98.4484 11.04 99.3844 10.776 100.416 10.776C101.16 10.776 101.832 10.92 102.432 11.208C103.032 11.496 103.536 11.88 103.944 12.384C104.352 12.888 104.664 13.44 104.88 14.04V11.064ZM104.232 20.664V20.688C104.832 19.896 105.144 18.792 105.144 17.376C105.144 15.984 104.832 14.904 104.232 14.112C103.632 13.32 102.768 12.936 101.664 12.936C100.56 12.936 99.7204 13.32 99.1204 14.088C98.5204 14.856 98.2324 15.936 98.2324 17.352C98.2324 18.768 98.5204 19.872 99.1204 20.664C99.7204 21.456 100.56 21.84 101.664 21.84C102.768 21.84 103.632 21.456 104.232 20.664ZM123.083 18.408L113.435 18.48C113.555 19.704 113.915 20.64 114.515 21.288C115.115 21.936 115.883 22.248 116.819 22.248C117.611 22.248 118.235 22.08 118.691 21.744C119.147 21.408 119.507 20.904 119.747 20.256H122.795C122.387 21.624 121.667 22.656 120.635 23.352C119.603 24.048 118.307 24.384 116.771 24.384C115.475 24.384 114.347 24.096 113.387 23.52C112.427 22.944 111.683 22.152 111.179 21.12C110.675 20.088 110.411 18.912 110.411 17.592C110.411 16.272 110.675 15.096 111.203 14.064C111.731 13.032 112.475 12.24 113.435 11.664C114.395 11.088 115.523 10.8 116.795 10.8C118.067 10.8 119.171 11.064 120.131 11.616C121.091 12.168 121.835 12.936 122.363 13.944C122.891 14.952 123.155 16.128 123.155 17.448C123.155 17.76 123.131 18.072 123.083 18.408ZM114.539 13.824H114.563C113.987 14.4 113.627 15.264 113.459 16.392H119.987C119.939 15.696 119.771 15.096 119.483 14.592C119.195 14.088 118.811 13.68 118.331 13.392C117.851 13.104 117.323 12.96 116.723 12.96C115.835 12.96 115.115 13.248 114.539 13.824ZM127.894 23.832L127.798 23.88C126.982 23.568 126.31 23.112 125.782 22.488C125.254 21.864 124.942 21.096 124.822 20.208H127.846C127.99 20.928 128.326 21.432 128.83 21.744C129.334 22.056 129.934 22.2 130.63 22.2C131.518 22.2 132.214 22.056 132.694 21.768C133.174 21.48 133.414 21.072 133.414 20.568C133.414 20.232 133.342 19.944 133.198 19.728C133.054 19.512 132.79 19.32 132.43 19.152C132.07 18.984 131.59 18.84 130.966 18.72L128.926 18.264C127.702 18 126.766 17.568 126.118 16.992C125.47 16.416 125.158 15.648 125.158 14.712C125.158 13.944 125.398 13.272 125.878 12.672C126.358 12.072 127.006 11.616 127.822 11.304C128.638 10.992 129.55 10.824 130.534 10.824C131.47 10.824 132.334 10.968 133.102 11.232C133.87 11.496 134.518 11.904 135.046 12.432C135.574 12.96 135.934 13.608 136.102 14.4H133.078C132.91 13.944 132.598 13.584 132.118 13.32C131.638 13.056 131.11 12.912 130.51 12.912C129.814 12.912 129.238 13.056 128.758 13.344C128.278 13.632 128.038 13.992 128.038 14.448C128.038 14.736 128.134 14.976 128.302 15.168C128.47 15.36 128.71 15.504 129.046 15.624C129.382 15.744 129.838 15.864 130.414 15.984L132.454 16.416C133.798 16.704 134.782 17.16 135.406 17.784C136.03 18.408 136.342 19.224 136.342 20.256C136.342 21.096 136.102 21.816 135.622 22.44C135.142 23.064 134.47 23.52 133.606 23.832C132.742 24.144 131.758 24.312 130.654 24.312C129.622 24.312 128.71 24.144 127.894 23.832ZM146.063 21.768V24H144.191C143.375 24 142.655 23.856 142.007 23.592C141.359 23.328 140.855 22.92 140.495 22.368C140.135 21.816 139.943 21.12 139.943 20.304V20.256V13.272H137.399V11.064H139.943V7.992H142.943V11.064H146.015V13.272H142.943V20.112V20.16C142.943 20.76 143.087 21.168 143.375 21.408C143.663 21.648 144.095 21.768 144.695 21.768H146.063Z" fill="white"/>
</svg>
