<svg width="300" height="80" viewBox="0 0 300 80" fill="none" xmlns="http://www.w3.org/2000/svg">
  <path d="M54.5 16C39.9 16 28 27.9 28 42.5C28 57.1 39.9 69 54.5 69C69.1 69 81 57.1 81 42.5C81 27.9 69.1 16 54.5 16ZM54.5 64C42.6 64 33 54.4 33 42.5C33 30.6 42.6 21 54.5 21C66.4 21 76 30.6 76 42.5C76 54.4 66.4 64 54.5 64Z" fill="white"/>
  <path d="M37 31L47 41L37 51" stroke="white" stroke-width="5" stroke-linecap="round" stroke-linejoin="round"/>
  <path d="M72 31L62 41L72 51" stroke="white" stroke-width="5" stroke-linecap="round" stroke-linejoin="round"/>
  <path d="M105.8 57V23.4H117.2C120.533 23.4 123.267 24.0667 125.4 25.4C127.533 26.7333 129.133 28.5333 130.2 30.8C131.267 33.0667 131.8 35.6 131.8 38.4V42C131.8 44.8 131.267 47.3333 130.2 49.6C129.133 51.8667 127.533 53.6667 125.4 55C123.267 56.3333 120.533 57 117.2 57H105.8ZM113.8 50.2H117.2C119.2 50.2 120.733 49.8 121.8 49C122.867 48.2 123.6 47.1333 124 45.8C124.4 44.4667 124.6 43 124.6 41.4V39C124.6 37.4 124.4 35.9333 124 34.6C123.6 33.2667 122.867 32.2 121.8 31.4C120.733 30.6 119.2 30.2 117.2 30.2H113.8V50.2Z" fill="white"/>
  <path d="M148.023 57.6C145.49 57.6 143.29 57.0667 141.423 56C139.556 54.9333 138.09 53.4667 137.023 51.6C135.956 49.7333 135.423 47.6 135.423 45.2V44.2C135.423 41.8 135.956 39.6667 137.023 37.8C138.09 35.9333 139.556 34.4667 141.423 33.4C143.29 32.3333 145.49 31.8 148.023 31.8C150.556 31.8 152.756 32.3333 154.623 33.4C156.49 34.4667 157.956 35.9333 159.023 37.8C160.09 39.6667 160.623 41.8 160.623 44.2V45.2C160.623 47.6 160.09 49.7333 159.023 51.6C157.956 53.4667 156.49 54.9333 154.623 56C152.756 57.0667 150.556 57.6 148.023 57.6ZM148.023 51.2C149.356 51.2 150.423 50.8667 151.223 50.2C152.023 49.5333 152.623 48.6667 153.023 47.6C153.423 46.5333 153.623 45.4 153.623 44.2V45.2C153.623 44 153.423 42.8667 153.023 41.8C152.623 40.7333 152.023 39.8667 151.223 39.2C150.423 38.5333 149.356 38.2 148.023 38.2C146.69 38.2 145.623 38.5333 144.823 39.2C144.023 39.8667 143.423 40.7333 143.023 41.8C142.623 42.8667 142.423 44 142.423 45.2V44.2C142.423 45.4 142.623 46.5333 143.023 47.6C143.423 48.6667 144.023 49.5333 144.823 50.2C145.623 50.8667 146.69 51.2 148.023 51.2Z" fill="white"/>
  <path d="M164.129 57V32.4H171.129V57H164.129ZM164.129 28.2V22.2H171.129V28.2H164.129Z" fill="white"/>
  <path d="M188.445 57.6C185.912 57.6 183.712 57.0667 181.845 56C179.979 54.9333 178.512 53.4667 177.445 51.6C176.379 49.7333 175.845 47.6 175.845 45.2V44.2C175.845 41.8 176.379 39.6667 177.445 37.8C178.512 35.9333 179.979 34.4667 181.845 33.4C183.712 32.3333 185.912 31.8 188.445 31.8C190.979 31.8 193.179 32.3333 195.045 33.4C196.912 34.4667 198.379 35.9333 199.445 37.8C200.512 39.6667 201.045 41.8 201.045 44.2V45.2C201.045 47.6 200.512 49.7333 199.445 51.6C198.379 53.4667 196.912 54.9333 195.045 56C193.179 57.0667 190.979 57.6 188.445 57.6ZM188.445 51.2C189.779 51.2 190.845 50.8667 191.645 50.2C192.445 49.5333 193.045 48.6667 193.445 47.6C193.845 46.5333 194.045 45.4 194.045 44.2V45.2C194.045 44 193.845 42.8667 193.445 41.8C193.045 40.7333 192.445 39.8667 191.645 39.2C190.845 38.5333 189.779 38.2 188.445 38.2C187.112 38.2 186.045 38.5333 185.245 39.2C184.445 39.8667 183.845 40.7333 183.445 41.8C183.045 42.8667 182.845 44 182.845 45.2V44.2C182.845 45.4 183.045 46.5333 183.445 47.6C183.845 48.6667 184.445 49.5333 185.245 50.2C186.045 50.8667 187.112 51.2 188.445 51.2Z" fill="white"/>
  <path d="M218.552 57.6C216.018 57.6 213.818 57.0667 211.952 56C210.085 54.9333 208.618 53.4667 207.552 51.6C206.485 49.7333 205.952 47.6 205.952 45.2V44.2C205.952 41.8 206.485 39.6667 207.552 37.8C208.618 35.9333 210.085 34.4667 211.952 33.4C213.818 32.3333 216.018 31.8 218.552 31.8C220.552 31.8 222.285 32.1333 223.752 32.8C225.218 33.4667 226.418 34.4 227.352 35.6C228.285 36.8 228.952 38.2667 229.352 40H222.352C222.085 38.8 221.552 37.9333 220.752 37.4C219.952 36.8667 218.952 36.6 217.752 36.6C216.552 36.6 215.552 36.9333 214.752 37.6C213.952 38.2667 213.352 39.1333 212.952 40.2C212.552 41.2667 212.352 42.4 212.352 43.6V45.8C212.352 47 212.552 48.1333 212.952 49.2C213.352 50.2667 213.952 51.1333 214.752 51.8C215.552 52.4667 216.552 52.8 217.752 52.8C218.952 52.8 219.952 52.5333 220.752 52C221.552 51.4667 222.085 50.6 222.352 49.4H229.352C228.952 51.1333 228.285 52.6 227.352 53.8C226.418 55 225.218 55.9333 223.752 56.6C222.285 57.2667 220.552 57.6 218.552 57.6Z" fill="white"/>
  <path d="M246.268 57.6C243.734 57.6 241.534 57.0667 239.668 56C237.801 54.9333 236.334 53.4667 235.268 51.6C234.201 49.7333 233.668 47.6 233.668 45.2V44.2C233.668 41.8 234.201 39.6667 235.268 37.8C236.334 35.9333 237.801 34.4667 239.668 33.4C241.534 32.3333 243.734 31.8 246.268 31.8C248.801 31.8 251.001 32.3333 252.868 33.4C254.734 34.4667 256.201 35.9333 257.268 37.8C258.334 39.6667 258.868 41.8 258.868 44.2V45.2C258.868 47.6 258.334 49.7333 257.268 51.6C256.201 53.4667 254.734 54.9333 252.868 56C251.001 57.0667 248.801 57.6 246.268 57.6ZM246.268 51.2C247.601 51.2 248.668 50.8667 249.468 50.2C250.268 49.5333 250.868 48.6667 251.268 47.6C251.668 46.5333 251.868 45.4 251.868 44.2V45.2C251.868 44 251.668 42.8667 251.268 41.8C250.868 40.7333 250.268 39.8667 249.468 39.2C248.668 38.5333 247.601 38.2 246.268 38.2C244.934 38.2 243.868 38.5333 243.068 39.2C242.268 39.8667 241.668 40.7333 241.268 41.8C240.868 42.8667 240.668 44 240.668 45.2V44.2C240.668 45.4 240.868 46.5333 241.268 47.6C241.668 48.6667 242.268 49.5333 243.068 50.2C243.868 50.8667 244.934 51.2 246.268 51.2Z" fill="white"/>
  <path d="M275.374 57.6C272.841 57.6 270.574 57.0667 268.574 56C266.574 54.9333 265.041 53.4667 263.974 51.6C262.908 49.7333 262.374 47.6 262.374 45.2V44.2C262.374 41.8 262.908 39.6667 263.974 37.8C265.041 35.9333 266.574 34.4667 268.574 33.4C270.574 32.3333 272.841 31.8 275.374 31.8C278.441 31.8 280.974 32.5333 282.974 34C284.974 35.4667 286.308 37.6 286.974 40.4H279.774C279.374 39.2 278.708 38.3333 277.774 37.8C276.841 37.2667 275.708 37 274.374 37C273.041 37 271.974 37.3333 271.174 38C270.374 38.6667 269.774 39.5333 269.374 40.6C268.974 41.6667 268.774 42.8 268.774 44V45.4C268.774 46.6 268.974 47.7333 269.374 48.8C269.774 49.8667 270.374 50.7333 271.174 51.4C271.974 52.0667 273.041 52.4 274.374 52.4C275.708 52.4 276.841 52.1333 277.774 51.6C278.708 51.0667 279.374 50.2 279.774 49H286.974C286.308 51.8 284.974 53.9333 282.974 55.4C280.974 56.8667 278.441 57.6 275.374 57.6Z" fill="white"/>
  <path d="M290.681 57V23.4H297.681V37.8L296.881 37C297.214 36.2 297.681 35.4667 298.281 34.8C298.881 34.1333 299.614 33.6 300.481 33.2C301.347 32.8 302.347 32.6 303.481 32.6C305.081 32.6 306.414 33 307.481 33.8C308.547 34.6 309.347 35.7333 309.881 37.2C310.414 38.6667 310.681 40.4 310.681 42.4V57H303.681V43.8C303.681 42.3333 303.414 41.2 302.881 40.4C302.347 39.6 301.547 39.2 300.481 39.2C299.414 39.2 298.547 39.6 297.881 40.4C297.214 41.2 296.881 42.3333 296.881 43.8V57H290.681Z" fill="white"/>
  <path d="M328.187 57.6C325.654 57.6 323.454 57.0667 321.587 56C319.721 54.9333 318.254 53.4667 317.187 51.6C316.121 49.7333 315.587 47.6 315.587 45.2V44.2C315.587 41.8 316.121 39.6667 317.187 37.8C318.254 35.9333 319.721 34.4667 321.587 33.4C323.454 32.3333 325.654 31.8 328.187 31.8C330.721 31.8 332.921 32.3333 334.787 33.4C336.654 34.4667 338.121 35.9333 339.187 37.8C340.254 39.6667 340.787 41.8 340.787 44.2V45.2C340.787 47.6 340.254 49.7333 339.187 51.6C338.121 53.4667 336.654 54.9333 334.787 56C332.921 57.0667 330.721 57.6 328.187 57.6ZM328.187 51.2C329.521 51.2 330.587 50.8667 331.387 50.2C332.187 49.5333 332.787 48.6667 333.187 47.6C333.587 46.5333 333.787 45.4 333.787 44.2V45.2C333.787 44 333.587 42.8667 333.187 41.8C332.787 40.7333 332.187 39.8667 331.387 39.2C330.587 38.5333 329.521 38.2 328.187 38.2C326.854 38.2 325.787 38.5333 324.987 39.2C324.187 39.8667 323.587 40.7333 323.187 41.8C322.787 42.8667 322.587 44 322.587 45.2V44.2C322.587 45.4 322.787 46.5333 323.187 47.6C323.587 48.6667 324.187 49.5333 324.987 50.2C325.787 50.8667 326.854 51.2 328.187 51.2Z" fill="white"/>
  <path d="M358.694 57.6C356.16 57.6 353.96 57.0667 352.094 56C350.227 54.9333 348.76 53.4667 347.694 51.6C346.627 49.7333 346.094 47.6 346.094 45.2V44.2C346.094 41.8 346.627 39.6667 347.694 37.8C348.76 35.9333 350.227 34.4667 352.094 33.4C353.96 32.3333 356.16 31.8 358.694 31.8C361.227 31.8 363.427 32.3333 365.294 33.4C367.16 34.4667 368.627 35.9333 369.694 37.8C370.76 39.6667 371.294 41.8 371.294 44.2V45.2C371.294 47.6 370.76 49.7333 369.694 51.6C368.627 53.4667 367.16 54.9333 365.294 56C363.427 57.0667 361.227 57.6 358.694 57.6ZM358.694 51.2C360.027 51.2 361.094 50.8667 361.894 50.2C362.694 49.5333 363.294 48.6667 363.694 47.6C364.094 46.5333 364.294 45.4 364.294 44.2V45.2C364.294 44 364.094 42.8667 363.694 41.8C363.294 40.7333 362.694 39.8667 361.894 39.2C361.094 38.5333 360.027 38.2 358.694 38.2C357.36 38.2 356.294 38.5333 355.494 39.2C354.694 39.8667 354.094 40.7333 353.694 41.8C353.294 42.8667 353.094 44 353.094 45.2V44.2C353.094 45.4 353.294 46.5333 353.694 47.6C354.094 48.6667 354.694 49.5333 355.494 50.2C356.294 50.8667 357.36 51.2 358.694 51.2Z" fill="white"/>
  <path d="M375 57V32.4H382V57H375ZM375 28.2V22.2H382V28.2H375Z" fill="white"/>
  <path d="M386.306 57V32.4H393.306V57H386.306ZM386.306 28.2V22.2H393.306V28.2H386.306Z" fill="white"/>
</svg> 